<svg xmlns="http://www.w3.org/2000/svg" xmlns:xlink="http://www.w3.org/1999/xlink" width="1210" height="457" viewBox="142 496 1210 457" preserveAspectRatio="xMidYMid meet" version="1.0"><defs><g/><clipPath id="026153f3b0"><rect x="0" width="1210" y="0" height="457"/></clipPath><clipPath id="1b1a6aa343"><path d="M 846.429688 529.179688 L 967.1875 529.179688 L 967.1875 649.9375 L 846.429688 649.9375 Z M 846.429688 529.179688 " clip-rule="nonzero"/></clipPath><clipPath id="03287fb8ed"><path d="M 906.808594 529.179688 C 873.460938 529.179688 846.429688 556.210938 846.429688 589.558594 C 846.429688 622.90625 873.460938 649.9375 906.808594 649.9375 C 940.15625 649.9375 967.1875 622.90625 967.1875 589.558594 C 967.1875 556.210938 940.15625 529.179688 906.808594 529.179688 Z M 906.808594 529.179688 " clip-rule="nonzero"/></clipPath><clipPath id="3de78b126c"><path d="M 0.429688 0.179688 L 121.1875 0.179688 L 121.1875 120.9375 L 0.429688 120.9375 Z M 0.429688 0.179688 " clip-rule="nonzero"/></clipPath><clipPath id="7c4e70cc3f"><path d="M 60.808594 0.179688 C 27.460938 0.179688 0.429688 27.210938 0.429688 60.558594 C 0.429688 93.90625 27.460938 120.9375 60.808594 120.9375 C 94.15625 120.9375 121.1875 93.90625 121.1875 60.558594 C 121.1875 27.210938 94.15625 0.179688 60.808594 0.179688 Z M 60.808594 0.179688 " clip-rule="nonzero"/></clipPath><clipPath id="d98adcf1c2"><rect x="0" width="122" y="0" height="121"/></clipPath><clipPath id="d0765761e6"><path d="M 860 527 L 964 527 L 964 632 L 860 632 Z M 860 527 " clip-rule="nonzero"/></clipPath><clipPath id="41cf464876"><path d="M 841.417969 599.753906 L 891.75 508.457031 L 983.042969 558.789062 L 932.714844 650.085938 Z M 841.417969 599.753906 " clip-rule="nonzero"/></clipPath><clipPath id="6ea52cf237"><path d="M 841.417969 599.753906 L 891.75 508.457031 L 983.042969 558.789062 L 932.714844 650.085938 Z M 841.417969 599.753906 " clip-rule="nonzero"/></clipPath><clipPath id="187706b57f"><path d="M 886 563 L 942 563 L 942 587 L 886 587 Z M 886 563 " clip-rule="nonzero"/></clipPath><clipPath id="aa8c5934e1"><path d="M 841.417969 599.753906 L 891.75 508.457031 L 983.042969 558.789062 L 932.714844 650.085938 Z M 841.417969 599.753906 " clip-rule="nonzero"/></clipPath><clipPath id="bdcf34a125"><path d="M 841.417969 599.753906 L 891.75 508.457031 L 983.042969 558.789062 L 932.714844 650.085938 Z M 841.417969 599.753906 " clip-rule="nonzero"/></clipPath><clipPath id="d7c4874248"><path d="M 109.820312 150 L 559.820312 150 L 559.820312 613.394531 L 109.820312 613.394531 Z M 109.820312 150 " clip-rule="nonzero"/></clipPath><clipPath id="b3b838fad4"><path d="M 0.820312 0 L 450.820312 0 L 450.820312 463.394531 L 0.820312 463.394531 Z M 0.820312 0 " clip-rule="nonzero"/></clipPath><clipPath id="baa4a7c6a8"><rect x="0" width="451" y="0" height="464"/></clipPath></defs><g transform="matrix(1, 0, 0, 1, 142, 496)"><g clip-path="url(#026153f3b0)"><g fill="#00348d" fill-opacity="1"><g transform="translate(2.215124, 341.831539)"><g><path d="M 194.1875 -154.828125 C 194.1875 -141.597656 191.148438 -129.507812 185.078125 -118.5625 C 179.003906 -107.613281 169.675781 -98.773438 157.09375 -92.046875 C 144.519531 -85.328125 128.910156 -81.96875 110.265625 -81.96875 L 75.78125 -81.96875 L 75.78125 0 L 20.171875 0 L 20.171875 -228.34375 L 110.265625 -228.34375 C 128.484375 -228.34375 143.878906 -225.195312 156.453125 -218.90625 C 169.023438 -212.613281 178.457031 -203.9375 184.75 -192.875 C 191.039062 -181.820312 194.1875 -169.140625 194.1875 -154.828125 Z M 106.03125 -126.203125 C 116.65625 -126.203125 124.570312 -128.695312 129.78125 -133.6875 C 134.988281 -138.675781 137.59375 -145.722656 137.59375 -154.828125 C 137.59375 -163.929688 134.988281 -170.976562 129.78125 -175.96875 C 124.570312 -180.957031 116.65625 -183.453125 106.03125 -183.453125 L 75.78125 -183.453125 L 75.78125 -126.203125 Z M 106.03125 -126.203125 "/></g></g></g><g fill="#00348d" fill-opacity="1"><g transform="translate(200.617147, 341.831539)"><g><path d="M 75.78125 -240.703125 L 75.78125 0 L 20.171875 0 L 20.171875 -240.703125 Z M 75.78125 -240.703125 "/></g></g></g><g fill="#00348d" fill-opacity="1"><g transform="translate(292.012058, 341.831539)"><g><path d="M 9.109375 -91.078125 C 9.109375 -109.722656 12.628906 -126.09375 19.671875 -140.1875 C 26.722656 -154.28125 36.316406 -165.117188 48.453125 -172.703125 C 60.597656 -180.296875 74.15625 -184.09375 89.125 -184.09375 C 101.914062 -184.09375 113.132812 -181.488281 122.78125 -176.28125 C 132.4375 -171.082031 139.863281 -164.253906 145.0625 -155.796875 L 145.0625 -181.5 L 200.6875 -181.5 L 200.6875 0 L 145.0625 0 L 145.0625 -25.703125 C 139.644531 -17.242188 132.109375 -10.410156 122.453125 -5.203125 C 112.804688 0.00390625 101.585938 2.609375 88.796875 2.609375 C 74.046875 2.609375 60.597656 -1.238281 48.453125 -8.9375 C 36.316406 -16.632812 26.722656 -27.582031 19.671875 -41.78125 C 12.628906 -55.988281 9.109375 -72.421875 9.109375 -91.078125 Z M 145.0625 -90.75 C 145.0625 -104.625 141.210938 -115.570312 133.515625 -123.59375 C 125.816406 -131.625 116.441406 -135.640625 105.390625 -135.640625 C 94.328125 -135.640625 84.945312 -131.679688 77.25 -123.765625 C 69.550781 -115.847656 65.703125 -104.953125 65.703125 -91.078125 C 65.703125 -77.191406 69.550781 -66.179688 77.25 -58.046875 C 84.945312 -49.921875 94.328125 -45.859375 105.390625 -45.859375 C 116.441406 -45.859375 125.816406 -49.867188 133.515625 -57.890625 C 141.210938 -65.921875 145.0625 -76.875 145.0625 -90.75 Z M 145.0625 -90.75 "/></g></g></g><g fill="#00348d" fill-opacity="1"><g transform="translate(508.302794, 341.831539)"><g><path d="M 130.75 -183.453125 C 152.007812 -183.453125 168.976562 -176.566406 181.65625 -162.796875 C 194.34375 -149.023438 200.6875 -130.101562 200.6875 -106.03125 L 200.6875 0 L 145.390625 0 L 145.390625 -98.5625 C 145.390625 -110.695312 142.242188 -120.125 135.953125 -126.84375 C 129.671875 -133.570312 121.21875 -136.9375 110.59375 -136.9375 C 99.96875 -136.9375 91.507812 -133.570312 85.21875 -126.84375 C 78.925781 -120.125 75.78125 -110.695312 75.78125 -98.5625 L 75.78125 0 L 20.171875 0 L 20.171875 -181.5 L 75.78125 -181.5 L 75.78125 -157.421875 C 81.425781 -165.453125 89.015625 -171.796875 98.546875 -176.453125 C 108.085938 -181.117188 118.820312 -183.453125 130.75 -183.453125 Z M 130.75 -183.453125 "/></g></g></g><g fill="#00348d" fill-opacity="1"><g transform="translate(722.967356, 341.831539)"><g><path d="M 48.140625 -200.359375 C 38.378906 -200.359375 30.410156 -203.234375 24.234375 -208.984375 C 18.054688 -214.734375 14.96875 -221.832031 14.96875 -230.28125 C 14.96875 -238.957031 18.054688 -246.164062 24.234375 -251.90625 C 30.410156 -257.65625 38.378906 -260.53125 48.140625 -260.53125 C 57.679688 -260.53125 65.539062 -257.65625 71.71875 -251.90625 C 77.894531 -246.164062 80.984375 -238.957031 80.984375 -230.28125 C 80.984375 -221.832031 77.894531 -214.734375 71.71875 -208.984375 C 65.539062 -203.234375 57.679688 -200.359375 48.140625 -200.359375 Z M 75.78125 -181.5 L 75.78125 0 L 20.171875 0 L 20.171875 -181.5 Z M 75.78125 -181.5 "/></g></g></g><g fill="#00348d" fill-opacity="1"><g transform="translate(814.362185, 341.831539)"><g><path d="M 9.109375 -90.75 C 9.109375 -109.613281 12.957031 -126.09375 20.65625 -140.1875 C 28.351562 -154.28125 39.085938 -165.117188 52.859375 -172.703125 C 66.628906 -180.296875 82.40625 -184.09375 100.1875 -184.09375 C 122.945312 -184.09375 141.972656 -178.128906 157.265625 -166.203125 C 172.554688 -154.285156 182.585938 -137.484375 187.359375 -115.796875 L 128.15625 -115.796875 C 123.164062 -129.671875 113.515625 -136.609375 99.203125 -136.609375 C 89.015625 -136.609375 80.882812 -132.648438 74.8125 -124.734375 C 68.738281 -116.816406 65.703125 -105.488281 65.703125 -90.75 C 65.703125 -76 68.738281 -64.664062 74.8125 -56.75 C 80.882812 -48.84375 89.015625 -44.890625 99.203125 -44.890625 C 113.515625 -44.890625 123.164062 -51.828125 128.15625 -65.703125 L 187.359375 -65.703125 C 182.585938 -44.453125 172.503906 -27.753906 157.109375 -15.609375 C 141.710938 -3.460938 122.738281 2.609375 100.1875 2.609375 C 82.40625 2.609375 66.628906 -1.1875 52.859375 -8.78125 C 39.085938 -16.375 28.351562 -27.21875 20.65625 -41.3125 C 12.957031 -55.40625 9.109375 -71.882812 9.109375 -90.75 Z M 9.109375 -90.75 "/></g></g></g><g fill="#00348d" fill-opacity="1"><g transform="translate(1006.584516, 341.831539)"><g><path d="M 102.78125 2.609375 C 85 2.609375 69.003906 -1.1875 54.796875 -8.78125 C 40.597656 -16.375 29.429688 -27.21875 21.296875 -41.3125 C 13.171875 -55.40625 9.109375 -71.882812 9.109375 -90.75 C 9.109375 -109.394531 13.226562 -125.816406 21.46875 -140.015625 C 29.707031 -154.222656 40.984375 -165.117188 55.296875 -172.703125 C 69.609375 -180.296875 85.65625 -184.09375 103.4375 -184.09375 C 121.21875 -184.09375 137.265625 -180.296875 151.578125 -172.703125 C 165.890625 -165.117188 177.164062 -154.222656 185.40625 -140.015625 C 193.644531 -125.816406 197.765625 -109.394531 197.765625 -90.75 C 197.765625 -72.101562 193.585938 -55.675781 185.234375 -41.46875 C 176.890625 -27.269531 165.503906 -16.375 151.078125 -8.78125 C 136.660156 -1.1875 120.5625 2.609375 102.78125 2.609375 Z M 102.78125 -45.53125 C 113.40625 -45.53125 122.457031 -49.429688 129.9375 -57.234375 C 137.425781 -65.046875 141.171875 -76.21875 141.171875 -90.75 C 141.171875 -105.28125 137.535156 -116.445312 130.265625 -124.25 C 123.003906 -132.0625 114.0625 -135.96875 103.4375 -135.96875 C 92.59375 -135.96875 83.59375 -132.113281 76.4375 -124.40625 C 69.28125 -116.707031 65.703125 -105.488281 65.703125 -90.75 C 65.703125 -76.21875 69.222656 -65.046875 76.265625 -57.234375 C 83.316406 -49.429688 92.15625 -45.53125 102.78125 -45.53125 Z M 102.78125 -45.53125 "/></g></g></g></g></g><g clip-path="url(#1b1a6aa343)"><g clip-path="url(#03287fb8ed)"><g transform="matrix(1, 0, 0, 1, 846, 529)"><g clip-path="url(#d98adcf1c2)"><g clip-path="url(#3de78b126c)"><g clip-path="url(#7c4e70cc3f)"><path fill="#ffffff" d="M 0.429688 0.179688 L 121.1875 0.179688 L 121.1875 120.9375 L 0.429688 120.9375 Z M 0.429688 0.179688 " fill-opacity="1" fill-rule="nonzero"/></g></g></g></g></g></g><g clip-path="url(#d0765761e6)"><g clip-path="url(#41cf464876)"><g clip-path="url(#6ea52cf237)"><path fill="#00348d" d="M 866.492188 554.273438 C 852.632812 579.414062 861.78125 610.980469 886.921875 624.839844 C 912.0625 638.699219 943.640625 629.585938 957.5 604.445312 C 971.359375 579.304688 962.234375 547.691406 937.09375 533.832031 C 911.953125 519.972656 880.351562 529.132812 866.492188 554.273438 Z M 948.410156 599.40625 C 937.324219 619.519531 912.050781 626.828125 891.9375 615.738281 C 871.824219 604.652344 864.515625 579.378906 875.605469 559.265625 C 886.691406 539.152344 911.964844 531.84375 932.078125 542.933594 C 952.1875 554.019531 959.5 579.292969 948.410156 599.40625 Z M 948.410156 599.40625 " fill-opacity="1" fill-rule="nonzero"/></g></g></g><g clip-path="url(#187706b57f)"><g clip-path="url(#aa8c5934e1)"><g clip-path="url(#bdcf34a125)"><path fill="#00348d" d="M 890.511719 564.519531 L 886.746094 571.34375 L 914.050781 586.394531 L 941.539062 570.429688 L 937.839844 563.910156 L 914.398438 577.6875 Z M 890.511719 564.519531 " fill-opacity="1" fill-rule="nonzero"/></g></g></g><g clip-path="url(#d7c4874248)"><g transform="matrix(1, 0, 0, 1, 109, 150)"><g clip-path="url(#baa4a7c6a8)"><g clip-path="url(#b3b838fad4)"><path fill="#ffffff" d="M 0.820312 0 L 450.820312 0 L 450.820312 464.0625 L 0.820312 464.0625 Z M 0.820312 0 " fill-opacity="1" fill-rule="nonzero"/></g></g></g></g></svg>
