<svg xmlns="http://www.w3.org/2000/svg" xmlns:xlink="http://www.w3.org/1999/xlink" width="1237" height="467" viewBox="129 40 1237 467" preserveAspectRatio="xMidYMid meet" version="1.0"><defs><g/><clipPath id="690e0396c6"><rect x="0" width="1237" y="0" height="467"/></clipPath><clipPath id="94fe97aa0f"><path d="M 848.714844 73.320312 L 972.335938 73.320312 L 972.335938 196.941406 L 848.714844 196.941406 Z M 848.714844 73.320312 " clip-rule="nonzero"/></clipPath><clipPath id="9fc50716c4"><path d="M 910.527344 73.320312 C 876.386719 73.320312 848.714844 100.992188 848.714844 135.128906 C 848.714844 169.269531 876.386719 196.941406 910.527344 196.941406 C 944.664062 196.941406 972.335938 169.269531 972.335938 135.128906 C 972.335938 100.992188 944.664062 73.320312 910.527344 73.320312 Z M 910.527344 73.320312 " clip-rule="nonzero"/></clipPath><clipPath id="8529ed1914"><path d="M 0.714844 0.320312 L 124.335938 0.320312 L 124.335938 123.941406 L 0.714844 123.941406 Z M 0.714844 0.320312 " clip-rule="nonzero"/></clipPath><clipPath id="902e92d19c"><path d="M 62.527344 0.320312 C 28.386719 0.320312 0.714844 27.992188 0.714844 62.128906 C 0.714844 96.269531 28.386719 123.941406 62.527344 123.941406 C 96.664062 123.941406 124.335938 96.269531 124.335938 62.128906 C 124.335938 27.992188 96.664062 0.320312 62.527344 0.320312 Z M 62.527344 0.320312 " clip-rule="nonzero"/></clipPath><clipPath id="d9fd5e42db"><rect x="0" width="125" y="0" height="124"/></clipPath><clipPath id="75ae800790"><path d="M 862 71 L 970 71 L 970 178 L 862 178 Z M 862 71 " clip-rule="nonzero"/></clipPath><clipPath id="8959400f21"><path d="M 843.585938 145.570312 L 894.902344 52.484375 L 987.992188 103.800781 L 936.671875 196.890625 Z M 843.585938 145.570312 " clip-rule="nonzero"/></clipPath><clipPath id="be8eb309bd"><path d="M 843.585938 145.570312 L 894.902344 52.484375 L 987.992188 103.800781 L 936.671875 196.890625 Z M 843.585938 145.570312 " clip-rule="nonzero"/></clipPath><clipPath id="8c047105e7"><path d="M 889 108 L 947 108 L 947 132 L 889 132 Z M 889 108 " clip-rule="nonzero"/></clipPath><clipPath id="ff1dbe711a"><path d="M 843.585938 145.570312 L 894.902344 52.484375 L 987.992188 103.800781 L 936.671875 196.890625 Z M 843.585938 145.570312 " clip-rule="nonzero"/></clipPath><clipPath id="bc27273a4e"><path d="M 843.585938 145.570312 L 894.902344 52.484375 L 987.992188 103.800781 L 936.671875 196.890625 Z M 843.585938 145.570312 " clip-rule="nonzero"/></clipPath></defs><g transform="matrix(1, 0, 0, 1, 129, 40)"><g clip-path="url(#690e0396c6)"><g fill="#ffffff" fill-opacity="1"><g transform="translate(0.83511, 349.36229)"><g><path d="M 198.78125 -158.5 C 198.78125 -144.957031 195.671875 -132.578125 189.453125 -121.359375 C 183.242188 -110.148438 173.703125 -101.101562 160.828125 -94.21875 C 147.953125 -87.34375 131.96875 -83.90625 112.875 -83.90625 L 77.578125 -83.90625 L 77.578125 0 L 20.640625 0 L 20.640625 -233.75 L 112.875 -233.75 C 131.519531 -233.75 147.28125 -230.53125 160.15625 -224.09375 C 173.03125 -217.65625 182.6875 -208.773438 189.125 -197.453125 C 195.5625 -186.128906 198.78125 -173.144531 198.78125 -158.5 Z M 108.546875 -129.1875 C 119.421875 -129.1875 127.519531 -131.738281 132.84375 -136.84375 C 138.175781 -141.957031 140.84375 -149.175781 140.84375 -158.5 C 140.84375 -167.820312 138.175781 -175.035156 132.84375 -180.140625 C 127.519531 -185.242188 119.421875 -187.796875 108.546875 -187.796875 L 77.578125 -187.796875 L 77.578125 -129.1875 Z M 108.546875 -129.1875 "/></g></g></g><g fill="#ffffff" fill-opacity="1"><g transform="translate(203.947377, 349.36229)"><g><path d="M 77.578125 -246.390625 L 77.578125 0 L 20.640625 0 L 20.640625 -246.390625 Z M 77.578125 -246.390625 "/></g></g></g><g fill="#ffffff" fill-opacity="1"><g transform="translate(297.512199, 349.36229)"><g><path d="M 9.328125 -93.234375 C 9.328125 -112.316406 12.929688 -129.070312 20.140625 -143.5 C 27.359375 -157.9375 37.179688 -169.035156 49.609375 -176.796875 C 62.046875 -184.566406 75.921875 -188.453125 91.234375 -188.453125 C 104.328125 -188.453125 115.8125 -185.789062 125.6875 -180.46875 C 135.570312 -175.144531 143.175781 -168.148438 148.5 -159.484375 L 148.5 -185.796875 L 205.4375 -185.796875 L 205.4375 0 L 148.5 0 L 148.5 -26.296875 C 142.957031 -17.640625 135.242188 -10.648438 125.359375 -5.328125 C 115.484375 -0.00390625 104 2.65625 90.90625 2.65625 C 75.8125 2.65625 62.046875 -1.28125 49.609375 -9.15625 C 37.179688 -17.039062 27.359375 -28.25 20.140625 -42.78125 C 12.929688 -57.320312 9.328125 -74.140625 9.328125 -93.234375 Z M 148.5 -92.890625 C 148.5 -107.097656 144.554688 -118.304688 136.671875 -126.515625 C 128.796875 -134.734375 119.195312 -138.84375 107.875 -138.84375 C 96.5625 -138.84375 86.960938 -134.789062 79.078125 -126.6875 C 71.203125 -118.59375 67.265625 -107.441406 67.265625 -93.234375 C 67.265625 -79.023438 71.203125 -67.757812 79.078125 -59.4375 C 86.960938 -51.113281 96.5625 -46.953125 107.875 -46.953125 C 119.195312 -46.953125 128.796875 -51.054688 136.671875 -59.265625 C 144.554688 -67.484375 148.5 -78.691406 148.5 -92.890625 Z M 148.5 -92.890625 "/></g></g></g><g fill="#ffffff" fill-opacity="1"><g transform="translate(518.937946, 349.36229)"><g><path d="M 133.859375 -187.796875 C 155.609375 -187.796875 172.972656 -180.742188 185.953125 -166.640625 C 198.941406 -152.546875 205.4375 -133.179688 205.4375 -108.546875 L 205.4375 0 L 148.84375 0 L 148.84375 -100.890625 C 148.84375 -113.316406 145.625 -122.972656 139.1875 -129.859375 C 132.75 -136.742188 124.085938 -140.1875 113.203125 -140.1875 C 102.328125 -140.1875 93.671875 -136.742188 87.234375 -129.859375 C 80.796875 -122.972656 77.578125 -113.316406 77.578125 -100.890625 L 77.578125 0 L 20.640625 0 L 20.640625 -185.796875 L 77.578125 -185.796875 L 77.578125 -161.15625 C 83.347656 -169.375 91.117188 -175.867188 100.890625 -180.640625 C 110.660156 -185.410156 121.648438 -187.796875 133.859375 -187.796875 Z M 133.859375 -187.796875 "/></g></g></g><g fill="#ffffff" fill-opacity="1"><g transform="translate(738.698742, 349.36229)"><g><path d="M 49.28125 -205.109375 C 39.289062 -205.109375 31.128906 -208.046875 24.796875 -213.921875 C 18.472656 -219.804688 15.3125 -227.078125 15.3125 -235.734375 C 15.3125 -244.617188 18.472656 -252 24.796875 -257.875 C 31.128906 -263.757812 39.289062 -266.703125 49.28125 -266.703125 C 59.050781 -266.703125 67.097656 -263.757812 73.421875 -257.875 C 79.742188 -252 82.90625 -244.617188 82.90625 -235.734375 C 82.90625 -227.078125 79.742188 -219.804688 73.421875 -213.921875 C 67.097656 -208.046875 59.050781 -205.109375 49.28125 -205.109375 Z M 77.578125 -185.796875 L 77.578125 0 L 20.640625 0 L 20.640625 -185.796875 Z M 77.578125 -185.796875 "/></g></g></g><g fill="#ffffff" fill-opacity="1"><g transform="translate(832.26354, 349.36229)"><g><path d="M 9.328125 -92.890625 C 9.328125 -112.203125 13.265625 -129.070312 21.140625 -143.5 C 29.023438 -157.9375 40.015625 -169.035156 54.109375 -176.796875 C 68.203125 -184.566406 84.347656 -188.453125 102.546875 -188.453125 C 125.859375 -188.453125 145.335938 -182.347656 160.984375 -170.140625 C 176.640625 -157.929688 186.910156 -140.726562 191.796875 -118.53125 L 131.1875 -118.53125 C 126.082031 -132.738281 116.207031 -139.84375 101.5625 -139.84375 C 91.125 -139.84375 82.796875 -135.789062 76.578125 -127.6875 C 70.367188 -119.59375 67.265625 -107.992188 67.265625 -92.890625 C 67.265625 -77.796875 70.367188 -66.195312 76.578125 -58.09375 C 82.796875 -50 91.125 -45.953125 101.5625 -45.953125 C 116.207031 -45.953125 126.082031 -53.054688 131.1875 -67.265625 L 191.796875 -67.265625 C 186.910156 -45.503906 176.585938 -28.410156 160.828125 -15.984375 C 145.066406 -3.554688 125.640625 2.65625 102.546875 2.65625 C 84.347656 2.65625 68.203125 -1.222656 54.109375 -8.984375 C 40.015625 -16.753906 29.023438 -27.851562 21.140625 -42.28125 C 13.265625 -56.71875 9.328125 -73.585938 9.328125 -92.890625 Z M 9.328125 -92.890625 "/></g></g></g><g fill="#ffffff" fill-opacity="1"><g transform="translate(1029.049361, 349.36229)"><g><path d="M 105.21875 2.65625 C 87.019531 2.65625 70.648438 -1.222656 56.109375 -8.984375 C 41.566406 -16.753906 30.132812 -27.851562 21.8125 -42.28125 C 13.488281 -56.71875 9.328125 -73.585938 9.328125 -92.890625 C 9.328125 -111.984375 13.539062 -128.800781 21.96875 -143.34375 C 30.40625 -157.882812 41.945312 -169.035156 56.59375 -176.796875 C 71.25 -184.566406 87.679688 -188.453125 105.890625 -188.453125 C 124.085938 -188.453125 140.507812 -184.566406 155.15625 -176.796875 C 169.8125 -169.035156 181.351562 -157.882812 189.78125 -143.34375 C 198.21875 -128.800781 202.4375 -111.984375 202.4375 -92.890625 C 202.4375 -73.804688 198.164062 -56.992188 189.625 -42.453125 C 181.082031 -27.910156 169.425781 -16.753906 154.65625 -8.984375 C 139.894531 -1.222656 123.414062 2.65625 105.21875 2.65625 Z M 105.21875 -46.609375 C 116.09375 -46.609375 125.359375 -50.601562 133.015625 -58.59375 C 140.679688 -66.59375 144.515625 -78.023438 144.515625 -92.890625 C 144.515625 -107.765625 140.796875 -119.195312 133.359375 -127.1875 C 125.921875 -135.1875 116.765625 -139.1875 105.890625 -139.1875 C 94.785156 -139.1875 85.570312 -135.242188 78.25 -127.359375 C 70.925781 -119.484375 67.265625 -107.992188 67.265625 -92.890625 C 67.265625 -78.023438 70.867188 -66.59375 78.078125 -58.59375 C 85.296875 -50.601562 94.34375 -46.609375 105.21875 -46.609375 Z M 105.21875 -46.609375 "/></g></g></g></g></g><g clip-path="url(#94fe97aa0f)"><g clip-path="url(#9fc50716c4)"><g transform="matrix(1, 0, 0, 1, 848, 73)"><g clip-path="url(#d9fd5e42db)"><g clip-path="url(#8529ed1914)"><g clip-path="url(#902e92d19c)"><path fill="#ffffff" d="M 0.714844 0.320312 L 124.335938 0.320312 L 124.335938 123.941406 L 0.714844 123.941406 Z M 0.714844 0.320312 " fill-opacity="1" fill-rule="nonzero"/></g></g></g></g></g></g><g clip-path="url(#75ae800790)"><g clip-path="url(#8959400f21)"><g clip-path="url(#be8eb309bd)"><path fill="#00348d" d="M 869.253906 99.007812 C 855.0625 124.746094 864.429688 157.0625 890.167969 171.253906 C 915.90625 185.441406 948.234375 176.113281 962.425781 150.375 C 976.613281 124.636719 967.273438 92.273438 941.535156 78.082031 C 915.796875 63.894531 883.441406 73.269531 869.253906 99.007812 Z M 953.121094 145.214844 C 941.769531 165.804688 915.898438 173.289062 895.304688 161.9375 C 874.714844 150.585938 867.230469 124.714844 878.582031 104.121094 C 889.933594 83.53125 915.804688 76.046875 936.398438 87.398438 C 956.988281 98.75 964.472656 124.625 953.121094 145.214844 Z M 953.121094 145.214844 " fill-opacity="1" fill-rule="nonzero"/></g></g></g><g clip-path="url(#8c047105e7)"><g clip-path="url(#ff1dbe711a)"><g clip-path="url(#bc27273a4e)"><path fill="#00348d" d="M 893.84375 109.5 L 889.992188 116.484375 L 917.941406 131.894531 L 946.085938 115.550781 L 942.296875 108.875 L 918.300781 122.980469 Z M 893.84375 109.5 " fill-opacity="1" fill-rule="nonzero"/></g></g></g></svg>
